<svg xmlns="http://www.w3.org/2000/svg" width="56" height="54" viewBox="0 0 56 54">
  <path fill="#04C6C2" fill-rule="evenodd" d="M54.9718049,13.537536 C54.9903448,13.6055275 55,13.6756309 55,13.74606 L55,24.6930726 C55,24.9790672 54.8455877,25.2432099 54.5951988,25.3854921 L45.3220284,30.6754175 L45.3220284,41.1604846 C45.3220284,41.4458332 45.1689693,41.709232 44.9192411,41.8529041 L25.5622911,52.8937026 C25.5179845,52.9186457 25.46965,52.9346093 25.4213155,52.9515706 C25.4031901,52.9575569 25.3860716,52.9685318 25.3669392,52.9735205 C25.2316268,53.0088265 25.0893946,53.0088265 24.9540822,52.9735205 C24.9319289,52.9675341 24.9117896,52.9555615 24.8906433,52.9475797 C24.8463366,52.9316161 24.8000161,52.917648 24.7577234,52.8937026 L5.40480122,41.8529041 C5.1545648,41.7104701 5,41.4464235 5,41.1604846 L5,8.31944664 C5,8.24761061 5.01006968,8.17777002 5.02819511,8.10992489 C5.03423692,8.08697727 5.04833447,8.06602509 5.05639022,8.04307747 C5.07149474,8.00117312 5.0855923,7.95827105 5.1077456,7.91935986 C5.12285012,7.89341908 5.14500342,7.8724669 5.16312885,7.84852156 C5.18628912,7.81659443 5.20743545,7.78366959 5.2346236,7.75573335 C5.25778386,7.73278573 5.28799291,7.71582445 5.31417408,7.69587 C5.34337616,7.67192465 5.36955734,7.64598387 5.40278729,7.62702714 L5.40379426,7.62702714 L15.0807589,2.10662785 C15.3301153,1.96445738 15.636977,1.96445738 15.8863334,2.10662785 L25.563298,7.62702714 L25.565312,7.62702714 C25.5975349,7.64698159 25.6247231,7.67192465 25.6539252,7.69487227 C25.6801063,7.71482673 25.7093084,7.73278573 25.7324687,7.75473563 C25.7606638,7.78366959 25.7808032,7.81659443 25.8049704,7.84852156 C25.8220889,7.8724669 25.8452491,7.89341908 25.8593467,7.91935986 C25.8825069,7.95926877 25.8955975,8.00117312 25.911709,8.04307747 C25.9197648,8.06602509 25.9338623,8.08697727 25.9399041,8.11092261 C25.958444,8.17891414 25.9679229,8.2490175 25.9680992,8.31944664 L25.9680992,28.8316261 L34.0319008,24.2311271 L34.0319008,13.7450623 C34.0319008,13.6752217 34.0419704,13.6043834 34.0600959,13.537536 C34.0671446,13.5135906 34.0802352,13.4926385 34.088291,13.4696908 C34.1044025,13.4277865 34.1185,13.3848844 34.1406533,13.3459732 C34.1557578,13.3200324 34.1779111,13.2990803 34.1950296,13.2751349 C34.2191968,13.2432078 34.2393362,13.2102829 34.2675313,13.1823467 C34.2906916,13.1593991 34.3198937,13.1424378 34.3460748,13.1224834 C34.3762839,13.098538 34.4024651,13.0725972 34.434688,13.0536405 L34.435695,13.0536405 L44.1136666,7.53324121 C44.3629677,7.3908659 44.66994,7.3908659 44.9192411,7.53324121 L54.5962057,13.0536405 C54.6304427,13.0735949 54.6566238,13.098538 54.6868329,13.1214856 C54.7120071,13.1414401 54.7412092,13.1593991 54.7643694,13.181349 C54.7925645,13.2102829 54.8127039,13.2432078 54.8368711,13.2751349 C54.8549966,13.2990803 54.8771499,13.3200324 54.8912474,13.3459732 C54.9144077,13.3848844 54.9274983,13.4277865 54.9436098,13.4696908 C54.9526725,13.4926385 54.9657631,13.5135906 54.9718049,13.537536 Z M53.3868369,24.2311271 L53.3868369,15.1279058 L50.0004028,17.0594968 L45.3220284,19.7284049 L45.3220284,28.8316261 L53.3878439,24.2311271 L53.3868369,24.2311271 Z M43.7098723,40.698539 L43.7098723,31.5893314 L39.1080276,34.1933875 L25.9670923,41.6244256 L25.9670923,50.8194373 L43.7098723,40.698539 Z M6.61316309,9.70129247 L6.61316309,40.698539 L24.3539292,50.8184396 L24.3539292,41.6254233 L15.0857937,36.4282862 L15.0827728,36.4262907 L15.0787449,36.4242953 C15.0475289,36.4063363 15.0213477,36.3803955 14.9921456,36.3584456 C14.9669714,36.3384911 14.9377694,36.3225276 14.9156161,36.3005777 L14.9136021,36.2975845 C14.887421,36.2726414 14.8692955,36.241712 14.8471422,36.2137758 C14.8270029,36.1868373 14.8028356,36.1638897 14.7867241,36.1359534 L14.7857172,36.1329603 C14.7675917,36.1030286 14.7565151,36.0671106 14.7434245,36.033188 C14.7303339,36.0032563 14.7132155,35.9753201 14.7051597,35.943393 L14.7051597,35.9423952 C14.69509,35.9044818 14.6930761,35.8645729 14.6890482,35.8256617 C14.6850203,35.79573 14.6769646,35.7657983 14.6769646,35.7358667 L14.6769646,35.7338712 L14.6769646,14.3017915 L9.99959721,11.6318858 L6.61316309,9.7022902 L6.61316309,9.70129247 Z M15.4845531,3.72094306 L7.42175857,8.31944664 L15.4825392,12.9179502 L23.5443267,8.31844891 L15.4825392,3.72094306 L15.4845531,3.72094306 Z M19.6775688,32.4194367 L24.3549362,29.7515264 L24.3549362,9.70129247 L20.968502,11.6328835 L16.2901277,14.3017915 L16.2901277,34.3520254 L19.6775688,32.4194367 Z M44.5164539,9.14755642 L36.4546663,13.74606 L44.5164539,18.3445636 L52.5772345,13.7450623 L44.5164539,9.14755642 Z M43.7098723,19.7284049 L39.031498,17.0594968 L35.6450638,15.1279058 L35.6450638,24.2311271 L40.3224312,26.8990374 L43.7098723,28.8316261 L43.7098723,19.7284049 Z M25.1595038,40.2425798 L36.9843316,33.5538473 L42.895235,30.2114765 L34.8394893,25.6159661 L25.564305,30.9068892 L17.1108068,35.7288826 L25.1595038,40.2425798 Z"/>
</svg>
