<svg xmlns="http://www.w3.org/2000/svg" width="56" height="22" viewBox="0 0 56 22">
  <path fill="#04C6C2" fill-rule="evenodd" d="M13.6374985,47.1502814 C14.0769309,47.1492063 14.4972371,47.3299379 14.798745,47.6496173 C15.1118632,47.9546831 15.2878532,48.3737068 15.2864684,48.8108638 C15.2905661,49.2485585 15.1141465,49.6686051 14.798745,49.9721102 C14.4944521,50.2863611 14.0749232,50.4625633 13.6374985,50.4598337 C13.1992564,50.4667394 12.7781354,50.2898686 12.4762521,49.9721102 C12.1662676,49.6658584 11.9943627,49.2465783 12.0001411,48.8108638 C11.9970123,48.3756572 12.1685112,47.9573672 12.4762521,47.6496173 C12.7752493,47.326367 13.1972016,47.1449276 13.6374985,47.1502814 Z M20.8069459,29 L31.3975132,45.5825987 C31.8387868,46.2716049 32.1252276,46.7438451 32.2568355,46.9993194 L32.3148978,46.9993194 C32.1923658,45.9667038 32.141923,44.9268061 32.1639358,43.887179 L32.1639358,29 L34.6373906,29 L34.6373906,50.1695221 L31.594925,50.1695221 L20.7140462,33.2849993 C20.4430108,32.8689844 20.2172205,32.4251898 20.0405233,31.9611783 L19.9476236,31.9611783 C20.0510296,32.9252112 20.0898244,33.8950822 20.0637482,34.8642944 L20.0637482,50.1695221 L17.5902933,50.1695221 L17.5902933,29 L20.8069459,29 Z M49.822966,29 L49.822966,31.2412056 L41.6245663,31.2412056 L41.6245663,38.2783588 L49.2655677,38.2783588 L49.2655677,40.5079519 L41.6245663,40.5079519 L41.6245663,47.8470292 L50.3571393,47.8470292 L50.3455268,50.1695221 L39.0930491,50.1695221 L39.0930491,29 L49.822966,29 Z M68,29 L68,31.2412056 L61.845394,31.2412056 L61.845394,50.1695221 L59.3719392,50.1695221 L59.3719392,31.2412056 L53.287008,31.2412056 L53.287008,29 L68,29 Z" transform="translate(-12 -29)"/>
</svg>
