<svg xmlns="http://www.w3.org/2000/svg" width="58" height="22" viewBox="0 0 58 22">
  <path fill="#04C6C2" d="M544.265858,300.591093 C545.76254,301.579467 546.835632,302.934952 547.541614,304.57283 C547.711049,304.826983 547.598092,304.968179 547.259221,305.052897 C545.480147,305.504725 544.265858,305.843597 542.515024,306.295425 C542.091435,306.408382 542.063195,306.436621 541.696085,306.013032 C541.272496,305.532965 540.961864,305.222333 540.368839,304.93994 C538.589765,304.064523 536.86717,304.318676 535.257532,305.363529 C533.337261,306.606057 532.348887,308.441609 532.377126,310.72899 C532.405366,312.988132 533.958525,314.851923 536.189428,315.162555 C538.109698,315.416709 539.719336,314.738966 540.990103,313.298764 C541.244257,312.988132 541.470171,312.64926 541.752563,312.253911 L536.302385,312.253911 L536.302385,312.253911 C535.70936,312.253911 535.568164,311.8868 535.765839,311.406733 C536.132949,310.531315 536.810691,309.062873 537.206041,308.328652 C537.290759,308.159217 537.488434,307.876824 537.912023,307.876824 L547.000006,307.876294 C547.408176,306.583391 548.070357,305.361698 548.953577,304.205719 C551.015044,301.494749 553.500099,300.082786 556.860572,299.489761 C559.740978,298.981454 562.451947,299.263847 564.908764,300.929964 C567.139666,302.454884 568.52339,304.516351 568.890501,307.227321 C569.370568,311.039622 568.269237,314.145942 565.642985,316.800433 C563.779193,318.692464 561.491812,319.878513 558.86556,320.415059 C558.1031,320.556256 557.34064,320.584495 556.606419,320.669213 C554.036645,320.612734 551.692786,319.878513 549.716037,318.184157 C548.324937,316.98168 547.366931,315.503599 546.891328,313.782785 C546.562965,314.451043 546.167637,315.09066 545.706061,315.699101 C543.672834,318.381832 541.018343,320.047949 537.65787,320.499777 C534.890421,320.866888 532.320648,320.330341 530.061506,318.635985 C527.9718,317.054586 526.785751,314.96488 526.475119,312.366868 C526.108009,309.288787 527.011665,306.521339 528.875457,304.092762 C530.880445,301.46651 533.534936,299.800393 536.782452,299.207368 C539.436943,298.727301 541.978478,299.037933 544.265858,300.591093 Z M557.481836,304.57283 C554.855584,305.165854 553.161228,306.831971 552.539964,309.486462 C552.031657,311.689125 553.104749,313.920027 555.137977,314.823684 C556.691137,315.501426 558.244296,315.416709 559.740978,314.654248 C561.97188,313.496438 563.186168,311.689125 563.327365,309.260548 C563.299125,308.893438 563.299125,308.611045 563.242647,308.328652 C562.73434,305.532965 560.164567,303.951566 557.481836,304.57283 Z M524.187738,309.712376 C524.300696,309.712376 524.357174,309.797094 524.357174,309.910051 L524.300696,310.587794 C524.300696,310.700751 524.187738,310.785469 524.103021,310.785469 L517.94686,310.757229 C517.833903,310.757229 517.805664,310.672512 517.862142,310.587794 L518.257492,309.881812 C518.313971,309.797094 518.426928,309.712376 518.539885,309.712376 L524.187738,309.712376 Z M524.809002,307.114364 C524.921959,307.114364 524.978438,307.199082 524.950199,307.283799 L524.724285,307.961542 C524.696045,308.074499 524.583088,308.130977 524.470131,308.130977 L511.112957,308.159217 C511,308.159217 510.971761,308.102738 511.028239,308.01802 L511.621264,307.25556 C511.677742,307.170842 511.818939,307.114364 511.931896,307.114364 L524.809002,307.114364 Z M526.277444,304.516351 C526.390401,304.516351 526.418641,304.601069 526.362162,304.685787 L525.882095,305.420008 C525.825616,305.504725 525.68442,305.589443 525.599702,305.589443 L515.377087,305.561204 C515.26413,305.561204 515.23589,305.504725 515.292369,305.420008 L515.885393,304.657547 C515.941872,304.57283 516.083068,304.516351 516.196025,304.516351 L526.277444,304.516351 Z" transform="translate(-511 -299)"/>
</svg>
