<svg xmlns="http://www.w3.org/2000/svg" width="48" height="48" viewBox="0 0 48 48">
  <path fill="#04C6C2" d="M557.308852,298.13898 C558.201005,298.149032 564,298.653173 564,310.061959 C564,322.421482 556.202577,321.532557 556.202577,321.532557 L539.955682,321.532557 L539.955682,323.184869 L551.583895,323.184869 L551.597479,328.688023 C551.597479,328.688023 551.605088,328.741142 551.6066,328.836758 L551.606554,328.906681 C551.59009,329.907154 550.869092,334 540.173032,334 C529.355744,334 528.437234,329.378662 528.40583,327.987291 L528.405597,327.843184 C528.408796,327.685183 528.42256,327.595585 528.42256,327.595585 L528.42256,317.012597 C528.42256,311.038826 534.067133,310.732297 534.819743,310.717976 L546.435422,310.717421 C553.131896,310.717421 553.139222,304.30351 553.132938,303.896278 L553.132512,298.140736 L557.203953,298.140241 C557.213599,298.139817 557.230316,298.139232 557.253617,298.138962 Z M546.58485,326.093484 C545.427928,326.093484 544.492859,327.033447 544.492859,328.196426 C544.492859,329.359404 545.427928,330.299368 546.58485,330.299368 C547.741773,330.299368 548.676842,329.359404 548.676842,328.196426 C548.676842,327.033447 547.741773,326.093484 546.58485,326.093484 Z M539.826968,286 C550.644255,286 551.562765,290.621337 551.594169,292.012708 L551.594402,292.156816 C551.591203,292.314817 551.577439,292.404415 551.577439,292.404415 L551.577439,302.987403 C551.577439,308.96117 545.932866,309.267699 545.180256,309.28202 L533.564578,309.282574 C526.868107,309.282574 526.860778,315.696485 526.867062,316.103718 L526.867488,321.859261 L522.796047,321.859756 C522.786401,321.86018 522.769684,321.860765 522.746383,321.861035 L522.691148,321.861017 C521.798995,321.850965 516,321.346824 516,309.938037 C516,297.578515 523.797423,298.467443 523.797423,298.467443 L540.044318,298.467443 L540.044318,296.815131 L528.416105,296.815131 L528.402521,291.311977 C528.402521,291.311977 528.394912,291.258858 528.3934,291.163242 L528.393446,291.093319 C528.40991,290.092846 529.130911,286 539.826968,286 Z M533.41515,289.700632 C532.258228,289.700632 531.323158,290.640596 531.323158,291.803574 C531.323158,292.966552 532.258228,293.906516 533.41515,293.906516 C534.572072,293.906516 535.507141,292.966552 535.507141,291.803574 C535.507141,290.640596 534.572072,289.700632 533.41515,289.700632 Z" transform="translate(-516 -286)"/>
</svg>
