<svg xmlns="http://www.w3.org/2000/svg" width="42" height="50" viewBox="0 0 42 50">
  <path fill="#04C6C2" d="M537.685869,287.225038 C544.378975,283.000797 553.635773,284.97044 558.322759,291.615574 C560.56987,294.731007 561.454814,298.61185 560.777883,302.381512 C560.453328,304.16348 559.767359,305.861748 558.761443,307.373656 C560.229107,310.146422 560.721566,313.324787 560.160914,316.405933 C559.512813,319.985366 557.420625,323.142821 554.376074,325.156123 L554.068463,325.353612 L542.313727,332.774907 C535.621657,336.998925 526.364815,335.030131 521.676837,328.384371 C519.430315,325.268757 518.545409,321.388085 519.221893,317.618433 C519.546754,315.836346 520.233011,314.138009 521.23919,312.626067 C519.770801,309.853622 519.277956,306.675195 519.838682,303.594012 C520.487075,300.014697 522.579203,296.85735 525.623543,294.843844 L525.931133,294.646333 L537.685869,287.225038 Z M553.484077,294.670128 C551.252675,291.483714 547.251536,290.014554 543.462624,290.990396 C542.738244,291.18211 542.042943,291.467081 541.394373,291.837626 L541.074064,292.029994 L529.32005,299.451066 C527.389017,300.653925 526.058914,302.607005 525.656088,304.831111 C525.249151,307.098109 525.781449,309.431909 527.132759,311.305397 C529.364147,314.491857 533.36532,315.961041 537.154257,314.985174 C537.878046,314.7935 538.572841,314.508858 539.221081,314.138887 L539.54124,313.946826 L544.026865,311.114281 C544.249636,310.973746 544.49281,310.867817 544.74794,310.800174 C545.889513,310.507022 547.094515,310.950139 547.766449,311.910174 C548.172978,312.475208 548.333329,313.178327 548.211488,313.861602 C548.100531,314.470663 547.759207,315.012198 547.261125,315.378168 L547.107072,315.482585 L535.35202,322.903032 C535.128963,323.043718 534.885465,323.149725 534.629999,323.217362 C533.488896,323.510752 532.284195,323.067823 531.612662,322.107987 C531.293079,321.66043 531.124862,321.12609 531.128918,320.581321 L531.138555,320.376692 L531.1788,319.944773 L530.741919,319.813478 C529.239812,319.364533 527.81807,318.687638 526.527049,317.807717 L526.143715,317.537674 L525.541483,317.099504 L525.320113,317.768165 C525.201271,318.123768 525.107412,318.487092 525.039209,318.855531 C524.632331,321.122542 525.164624,323.456333 526.51588,325.329862 C528.747308,328.516349 532.748544,329.985519 536.537512,329.009595 C537.261738,328.81788 537.957017,328.532909 538.605584,328.162364 L538.925892,327.969996 L550.679952,320.549549 C552.610817,319.346125 553.940823,317.392877 554.343913,315.168656 C554.750851,312.901658 554.218552,310.567858 552.867242,308.69437 C550.635855,305.50791 546.634681,304.038726 542.845745,305.014593 C542.121882,305.206203 541.427104,305.491064 540.779071,305.861485 L540.459033,306.053789 L535.973992,308.885263 C535.750882,309.02582 535.507419,309.131817 535.252016,309.199593 C534.110445,309.492732 532.90545,309.049618 532.233507,308.089593 C531.826812,307.524555 531.66673,306.821184 531.789325,306.137941 C531.899781,305.528994 532.240873,304.9875 532.738857,304.62175 L532.892885,304.517405 L544.647936,297.096646 C544.870993,296.955959 545.114491,296.849953 545.369957,296.782316 C546.511061,296.488926 547.715762,296.931855 548.387295,297.891691 C548.706506,298.339406 548.874649,298.873631 548.870904,299.418334 L548.861401,299.622941 L548.821156,300.05486 L549.258038,300.1862 C550.760385,300.63519 552.182272,301.31238 553.473243,302.192791 L553.856557,302.462986 L554.458474,302.900486 L554.679844,302.231825 C554.798397,301.876138 554.89225,301.512834 554.960748,301.144459 C555.367625,298.877448 554.835332,296.543657 553.484077,294.670128 Z" transform="translate(-519 -285)"/>
</svg>
